<?xml version="1.0" encoding="UTF-8" standalone="no"?>
<!-- Created with Inkscape (http://www.inkscape.org/) -->
<svg
   xmlns:dc="http://purl.org/dc/elements/1.1/"
   xmlns:cc="http://creativecommons.org/ns#"
   xmlns:rdf="http://www.w3.org/1999/02/22-rdf-syntax-ns#"
   xmlns:svg="http://www.w3.org/2000/svg"
   xmlns="http://www.w3.org/2000/svg"
   xmlns:sodipodi="http://sodipodi.sourceforge.net/DTD/sodipodi-0.dtd"
   xmlns:inkscape="http://www.inkscape.org/namespaces/inkscape"
   id="svg2"
   sodipodi:version="0.32"
   inkscape:version="0.46"
   width="515"
   height="165"
   xml:space="preserve"
   sodipodi:docname="juelich.svg"
   inkscape:output_extension="org.inkscape.output.svg.inkscape"><metadata
     id="metadata7"><rdf:RDF><cc:Work
         rdf:about=""><dc:format>image/svg+xml</dc:format><dc:type
           rdf:resource="http://purl.org/dc/dcmitype/StillImage" /></cc:Work></rdf:RDF></metadata><defs
     id="defs5"><inkscape:perspective
       sodipodi:type="inkscape:persp3d"
       inkscape:vp_x="0 : 526.18109 : 1"
       inkscape:vp_y="0 : 1000 : 0"
       inkscape:vp_z="744.09448 : 526.18109 : 1"
       inkscape:persp3d-origin="372.04724 : 350.78739 : 1"
       id="perspective9" /><clipPath
       clipPathUnits="userSpaceOnUse"
       id="clipPath19"><path
         d="M 0,1316.44 L 0,0 L 4113.76,0 L 4113.76,1316.44"
         id="path21" /></clipPath></defs><sodipodi:namedview
     inkscape:window-height="724"
     inkscape:window-width="654"
     inkscape:pageshadow="2"
     inkscape:pageopacity="0.0"
     guidetolerance="10.0"
     gridtolerance="10.0"
     objecttolerance="10.0"
     borderopacity="1.0"
     bordercolor="#666666"
     pagecolor="#ffffff"
     id="base"
     showgrid="false"
     inkscape:zoom="1.0737864"
     inkscape:cx="257.5"
     inkscape:cy="82.5"
     inkscape:window-x="0"
     inkscape:window-y="25"
     inkscape:current-layer="g11" /><g
     id="g11"
     inkscape:groupmode="layer"
     inkscape:label="juelich"
     transform="matrix(1.25,0,0,-1.25,0,165)"><g
       id="g13"
       transform="scale(0.1,0.1)"><g
         id="g15"><g
           id="g17"
           clip-path="url(#clipPath19)"><path
             d="M 503.402,705.508 C 503.559,705.41 507.824,713.582 511.27,719.422 C 539.301,766.805 709.43,1188.39 751.09,1287.67 C 694.754,1306.24 634.547,1316.44 571.965,1316.44 C 256.07,1316.44 0,1060.5 0,744.77 C 0,692.715 7.10547,642.34 20.1484,594.418 C 56.0586,617.773 274.938,769.16 275.266,768.09 C 310.324,639.066 428.402,572.539 503.402,705.508 z M 1009.09,1113.3 C 966.109,1011.68 821.477,670.82 782.699,594.105 C 706.32,455.254 584.27,325.703 418.922,318.262 C 224.848,309.531 122.07,383.574 66.75,476.816 C 162.832,296.172 353.012,173.16 571.965,173.16 C 887.875,173.16 1143.95,429.102 1143.95,744.77 C 1143.95,885.254 1093.14,1013.78 1009.09,1113.3"
             style="fill:#045078;fill-opacity:1;fill-rule:nonzero;stroke:none"
             id="path23" /><path
             d="M 1619.63,1016.95 L 1619.63,557.723 C 1619.63,451.355 1616.18,425.41 1598.88,393.426 C 1572.07,345.848 1518.44,324.227 1425.92,324.227 C 1419,324.227 1407.76,324.227 1393.05,325.086 L 1393.05,417.625 L 1412.08,417.625 C 1462.24,418.484 1489.05,426.289 1499.42,444.441 C 1508.07,457.41 1508.93,470.371 1508.93,555.125 L 1508.93,1016.95 L 1619.63,1016.95"
             style="fill:#045078;fill-opacity:1;fill-rule:nonzero;stroke:none"
             id="path25" /><path
             d="M 2142.83,1130.24 C 2142.83,1094.78 2114.3,1066.23 2079.7,1066.23 C 2044.23,1066.23 2015.7,1094.78 2015.7,1129.36 C 2015.7,1165.67 2044.23,1193.36 2079.7,1193.36 C 2114.3,1193.36 2142.83,1164.83 2142.83,1130.24 z M 1981.98,1130.24 C 1981.98,1094.78 1953.44,1066.23 1918.84,1066.23 C 1883.37,1066.23 1854.86,1094.78 1854.86,1129.36 C 1854.86,1165.67 1883.37,1193.36 1918.84,1193.36 C 1953.44,1193.36 1981.98,1164.83 1981.98,1130.24 z M 1881.65,1016.95 L 1881.65,685.727 C 1881.65,627.793 1883.37,608.738 1892.04,586.277 C 1907.6,547.363 1946.52,524.863 1999.27,524.863 C 2060.68,524.863 2099.59,552.527 2111.69,604.434 C 2116.03,622.602 2116.88,639.891 2116.88,685.727 L 2116.88,1016.95 L 2227.58,1016.95 L 2227.58,683.992 C 2227.58,600.973 2223.26,572.43 2205.11,536.113 C 2172.23,467.781 2096.14,428.875 1999.27,428.875 C 1902.42,428.875 1826.31,467.781 1793.44,536.113 C 1775.28,572.43 1770.97,600.973 1770.97,683.992 L 1770.97,1016.95 L 1881.65,1016.95"
             style="fill:#045078;fill-opacity:1;fill-rule:nonzero;stroke:none"
             id="path27" /><path
             d="M 2495.67,1016.95 L 2495.67,534.375 L 2745.59,534.375 L 2745.59,440.117 L 2382.38,440.117 L 2382.38,1016.95 L 2495.67,1016.95"
             style="fill:#045078;fill-opacity:1;fill-rule:nonzero;stroke:none"
             id="path29" /><path
             d="M 2849.38,440.117 L 2960.071,440.117 L 2960.071,1016.945 L 2849.38,1016.945 L 2849.38,440.117 z"
             style="fill:#045078;fill-opacity:1;fill-rule:nonzero;stroke:none"
             id="path31" /><path
             d="M 3443.5,829.273 C 3433.12,895.871 3395.06,932.191 3336.26,932.191 C 3250.64,932.191 3197.02,853.488 3197.02,727.234 C 3197.02,600.973 3250.64,523.984 3337.12,523.984 C 3404.57,523.984 3440.92,566.371 3447.82,653.719 L 3546.41,653.719 C 3539.48,504.988 3470.28,428.875 3341.43,428.875 C 3183.18,428.875 3081.99,545.625 3081.99,726.359 C 3081.99,831.867 3113.14,914.043 3173.67,968.523 C 3217.78,1007.43 3273.98,1028.2 3336.26,1028.2 C 3459.06,1028.2 3531.72,957.273 3539.48,829.273 L 3443.5,829.273"
             style="fill:#045078;fill-opacity:1;fill-rule:nonzero;stroke:none"
             id="path33" /><path
             d="M 3999.55,786.906 L 3999.55,1016.95 L 4110.24,1016.95 L 4110.24,440.117 L 3999.55,440.117 L 3999.55,695.234 L 3770.4,695.234 L 3770.4,440.117 L 3659.7,440.117 L 3659.7,1016.95 L 3770.4,1016.95 L 3770.4,786.906 L 3999.55,786.906"
             style="fill:#045078;fill-opacity:1;fill-rule:nonzero;stroke:none"
             id="path35" /><path
             d="M 1486.3,103.238 L 1486.3,86.0312 L 1414.83,86.0312 L 1414.83,3.17969 L 1394.99,3.17969 L 1394.99,179.738 L 1491.86,179.738 L 1491.86,162.531 L 1414.83,162.531 L 1414.83,103.238 L 1486.3,103.238"
             style="fill:#4f4b4c;fill-opacity:1;fill-rule:nonzero;stroke:none"
             id="path37" /><path
             d="M 1543.23,92.6484 C 1543.23,46.8516 1563.09,17.7383 1594.05,17.7383 C 1624.5,17.7383 1644.61,47.1211 1644.61,91.5898 C 1644.61,136.32 1624.5,165.441 1594.05,165.441 C 1563.62,165.441 1543.23,136.32 1543.23,92.6484 z M 1665.79,91.5898 C 1665.79,37.3281 1636.68,0.269531 1594.05,0.269531 C 1550.65,0.269531 1522.06,37.0586 1522.06,92.9102 C 1522.06,145.59 1551.7,182.91 1594.05,182.91 C 1636.68,182.91 1665.79,145.852 1665.79,91.5898"
             style="fill:#4f4b4c;fill-opacity:1;fill-rule:nonzero;stroke:none"
             id="path39" /><path
             d="M 1742.54,95.8203 C 1763.99,95.8203 1770.08,96.3516 1778.29,99.2617 C 1790.99,103.762 1798.14,114.891 1798.14,129.98 C 1798.14,143.469 1792.06,153.789 1781.46,158.301 C 1773.26,162.012 1767.17,162.531 1742.02,162.531 L 1730.1,162.531 L 1730.1,95.8203 L 1742.54,95.8203 z M 1741.49,179.738 C 1768.76,179.738 1778.81,178.68 1790.45,174.172 C 1808.2,167.301 1819.05,150.621 1819.05,129.711 C 1819.05,106.41 1806.88,90.5312 1782.78,81.7891 L 1829.11,3.17969 L 1805.28,3.17969 L 1760.82,78.6211 L 1730.1,78.6211 L 1730.1,3.17969 L 1710.26,3.17969 L 1710.26,179.738 L 1741.49,179.738"
             style="fill:#4f4b4c;fill-opacity:1;fill-rule:nonzero;stroke:none"
             id="path41" /><path
             d="M 1949.81,133.941 C 1947.95,154.059 1935.51,165.441 1915.4,165.441 C 1896.87,165.441 1883.11,154.059 1883.11,138.441 C 1883.11,131.031 1886.81,124.422 1893.7,119.922 C 1899.52,115.941 1899.52,115.941 1925.2,104.289 C 1948.49,93.9688 1957.76,88.1484 1964.37,80.2109 C 1970.73,72.2695 1974.17,61.9492 1974.17,50.5586 C 1974.17,20.3906 1950.87,0.269531 1916.46,0.269531 C 1895.02,0.269531 1878.07,7.94141 1868.01,21.6992 C 1861.14,31.2305 1858.23,40.7695 1857.43,56.9219 L 1876.75,56.9219 C 1878.61,31.5 1892.64,17.7383 1917.25,17.7383 C 1938.7,17.7383 1953.78,30.4414 1953.78,48.1797 C 1953.78,56.9219 1950.34,63.7891 1943.19,69.8906 C 1937.64,74.6484 1933.13,77.0391 1915.67,84.7109 C 1896.61,93.1797 1884.97,99.5391 1878.87,104.559 C 1868.55,113.031 1863.25,123.879 1863.25,136.859 C 1863.25,163.59 1885.49,182.91 1916.46,182.91 C 1935.79,182.91 1951.93,175.238 1960.93,161.73 C 1966.23,154.059 1968.34,146.379 1969.14,133.941 L 1949.81,133.941"
             style="fill:#4f4b4c;fill-opacity:1;fill-rule:nonzero;stroke:none"
             id="path43" /><path
             d="M 2122.93,130.77 C 2117.9,154.059 2104.4,165.441 2082.7,165.441 C 2051.2,165.441 2031.34,136.859 2031.34,91.3203 C 2031.34,45.5312 2050.92,17.4805 2082.95,17.4805 C 2107.58,17.4805 2122.66,33.3516 2125.57,63 L 2144.37,63 C 2141.2,22.7695 2119.22,0 2083.76,0 C 2038.76,0 2010.16,35.2109 2010.16,90.8008 C 2010.16,146.641 2038.76,182.91 2082.95,182.91 C 2115.79,182.91 2136.96,163.852 2141.46,130.77 L 2122.93,130.77"
             style="fill:#4f4b4c;fill-opacity:1;fill-rule:nonzero;stroke:none"
             id="path45" /><path
             d="M 2288.91,103.762 L 2288.91,179.738 L 2308.76,179.738 L 2308.76,3.17969 L 2288.91,3.17969 L 2288.91,87.3594 L 2206.06,87.3594 L 2206.06,3.17969 L 2186.2,3.17969 L 2186.2,179.738 L 2206.06,179.738 L 2206.06,103.762 L 2288.91,103.762"
             style="fill:#4f4b4c;fill-opacity:1;fill-rule:nonzero;stroke:none"
             id="path47" /><path
             d="M 2379.43,179.738 L 2379.43,75.7109 C 2379.43,48.7109 2380.49,42.0898 2385.79,33.8789 C 2392.41,23.8203 2405.9,17.7383 2422.05,17.7383 C 2440.84,17.7383 2455.67,25.9414 2460.96,39.4492 C 2463.87,46.3203 2464.4,53.2109 2464.4,75.7109 L 2464.4,179.738 L 2484.25,179.738 L 2484.25,75.4414 C 2484.25,47.3906 2483.73,42.6211 2480.02,33.0898 C 2471.55,12.4492 2450.1,0.269531 2422.05,0.269531 C 2393.73,0.269531 2372.28,12.4492 2363.81,33.0898 C 2360.1,42.6211 2359.58,47.3906 2359.58,75.4414 L 2359.58,179.738 L 2379.43,179.738"
             style="fill:#4f4b4c;fill-opacity:1;fill-rule:nonzero;stroke:none"
             id="path49" /><path
             d="M 2556.78,179.738 L 2641.49,32.832 L 2641.49,179.738 L 2660.03,179.738 L 2660.03,3.17969 L 2638.33,3.17969 L 2554.14,149.828 L 2554.14,3.17969 L 2535.34,3.17969 L 2535.34,179.738 L 2556.78,179.738"
             style="fill:#4f4b4c;fill-opacity:1;fill-rule:nonzero;stroke:none"
             id="path51" /><path
             d="M 2838.7,90.8008 L 2838.7,18.2695 C 2822.04,6.08984 2802.18,0 2780.48,0 C 2732.82,0 2704.23,34.4219 2704.23,91.8516 C 2704.23,147.449 2732.82,182.91 2777.82,182.91 C 2810.91,182.91 2832.35,164.121 2836.32,131.031 L 2817.8,131.031 C 2812.51,154.59 2799.8,165.441 2777.82,165.441 C 2745.26,165.441 2725.42,137.648 2725.42,91.5898 C 2725.42,44.4805 2745.54,17.4805 2780.73,17.4805 C 2794.23,17.4805 2807.74,21.4414 2820.71,29.1211 L 2820.71,73.5898 L 2784.97,73.5898 L 2784.97,90.8008 L 2838.7,90.8008"
             style="fill:#4f4b4c;fill-opacity:1;fill-rule:nonzero;stroke:none"
             id="path53" /><path
             d="M 2969.19,133.941 C 2967.35,154.059 2954.91,165.441 2934.8,165.441 C 2916.26,165.441 2902.49,154.059 2902.49,138.441 C 2902.49,131.031 2906.2,124.422 2913.08,119.922 C 2918.9,115.941 2918.9,115.941 2944.58,104.289 C 2967.88,93.9688 2977.14,88.1484 2983.76,80.2109 C 2990.11,72.2695 2993.54,61.9492 2993.54,50.5586 C 2993.54,20.3906 2970.26,0.269531 2935.85,0.269531 C 2914.4,0.269531 2897.47,7.94141 2887.41,21.6992 C 2880.52,31.2305 2877.61,40.7695 2876.81,56.9219 L 2896.14,56.9219 C 2898,31.5 2912.02,17.7383 2936.63,17.7383 C 2958.08,17.7383 2973.17,30.4414 2973.17,48.1797 C 2973.17,56.9219 2969.74,63.7891 2962.59,69.8906 C 2957.02,74.6484 2952.53,77.0391 2935.05,84.7109 C 2915.99,93.1797 2904.35,99.5391 2898.25,104.559 C 2887.94,113.031 2882.65,123.879 2882.65,136.859 C 2882.65,163.59 2904.87,182.91 2935.85,182.91 C 2955.17,182.91 2971.32,175.238 2980.32,161.73 C 2985.62,154.059 2987.72,146.379 2988.53,133.941 L 2969.19,133.941"
             style="fill:#4f4b4c;fill-opacity:1;fill-rule:nonzero;stroke:none"
             id="path55" /><path
             d="M 3138.35,179.738 L 3138.35,166.23 L 3047.55,20.3906 L 3136.75,20.3906 L 3136.75,3.17969 L 3024.25,3.17969 L 3024.25,18.5312 L 3114.25,162.801 L 3029.81,162.801 L 3029.81,179.738 L 3138.35,179.738"
             style="fill:#4f4b4c;fill-opacity:1;fill-rule:nonzero;stroke:none"
             id="path57" /><path
             d="M 3268.58,103.238 L 3268.58,86.0312 L 3197.12,86.0312 L 3197.12,20.3906 L 3276.01,20.3906 L 3276.01,3.17969 L 3177.26,3.17969 L 3177.26,179.738 L 3274.15,179.738 L 3274.15,162.531 L 3197.12,162.531 L 3197.12,103.238 L 3268.58,103.238"
             style="fill:#4f4b4c;fill-opacity:1;fill-rule:nonzero;stroke:none"
             id="path59" /><path
             d="M 3339.52,179.738 L 3424.23,32.832 L 3424.23,179.738 L 3442.76,179.738 L 3442.76,3.17969 L 3421.04,3.17969 L 3336.88,149.828 L 3336.88,3.17969 L 3318.08,3.17969 L 3318.08,179.738 L 3339.52,179.738"
             style="fill:#4f4b4c;fill-opacity:1;fill-rule:nonzero;stroke:none"
             id="path61" /><path
             d="M 3590.73,179.738 L 3590.73,162.531 L 3544.66,162.531 L 3544.66,3.17969 L 3524.81,3.17969 L 3524.81,162.531 L 3479.01,162.531 L 3479.01,179.738 L 3590.73,179.738"
             style="fill:#4f4b4c;fill-opacity:1;fill-rule:nonzero;stroke:none"
             id="path63" /><path
             d="M 3659.01,95.8203 C 3680.46,95.8203 3686.55,96.3516 3694.76,99.2617 C 3707.45,103.762 3714.6,114.891 3714.6,129.98 C 3714.6,143.469 3708.53,153.789 3697.94,158.301 C 3689.72,162.012 3683.64,162.531 3658.49,162.531 L 3646.57,162.531 L 3646.57,95.8203 L 3659.01,95.8203 z M 3657.96,179.738 C 3685.22,179.738 3695.28,178.68 3706.92,174.172 C 3724.66,167.301 3735.52,150.621 3735.52,129.711 C 3735.52,106.41 3723.35,90.5312 3699.25,81.7891 L 3745.58,3.17969 L 3721.75,3.17969 L 3677.28,78.6211 L 3646.57,78.6211 L 3646.57,3.17969 L 3626.73,3.17969 L 3626.73,179.738 L 3657.96,179.738"
             style="fill:#4f4b4c;fill-opacity:1;fill-rule:nonzero;stroke:none"
             id="path65" /><path
             d="M 3798.76,179.738 L 3798.76,75.7109 C 3798.76,48.7109 3799.81,42.0898 3805.11,33.8789 C 3811.73,23.8203 3825.22,17.7383 3841.38,17.7383 C 3860.17,17.7383 3874.99,25.9414 3880.28,39.4492 C 3883.19,46.3203 3883.72,53.2109 3883.72,75.7109 L 3883.72,179.738 L 3903.58,179.738 L 3903.58,75.4414 C 3903.58,47.3906 3903.06,42.6211 3899.35,33.0898 C 3890.87,12.4492 3869.42,0.269531 3841.38,0.269531 C 3813.06,0.269531 3791.61,12.4492 3783.14,33.0898 C 3779.42,42.6211 3778.9,47.3906 3778.9,75.4414 L 3778.9,179.738 L 3798.76,179.738"
             style="fill:#4f4b4c;fill-opacity:1;fill-rule:nonzero;stroke:none"
             id="path67" /><path
             d="M 3984.58,179.738 L 4034.09,24.8906 L 4083.86,179.738 L 4113.76,179.738 L 4113.76,3.17969 L 4094.97,3.17969 L 4094.97,159.891 L 4044.15,3.17969 L 4024.29,3.17969 L 3973.47,159.891 L 3973.47,3.17969 L 3954.68,3.17969 L 3954.68,179.738 L 3984.58,179.738"
             style="fill:#4f4b4c;fill-opacity:1;fill-rule:nonzero;stroke:none"
             id="path69" /></g></g></g></g></svg>