<?xml version="1.0" encoding="UTF-8" standalone="no"?>
<!-- Created with Inkscape (http://www.inkscape.org/) -->
<svg
   xmlns:svg="http://www.w3.org/2000/svg"
   xmlns="http://www.w3.org/2000/svg"
   version="1.0"
   width="496.25"
   height="252.5"
   id="svg2403"
   xml:space="preserve"><defs
     id="defs2406" /><g
     transform="matrix(1.25,0,0,-1.25,0,252.5)"
     id="g2412"><path
       d="M 6.73828,18.1719 L 19.5805,18.1719 L 19.5805,68.8828 L 39.4605,24.6754 C 41.807,19.3242 45.0176,17.4309 51.3152,17.4309 C 57.6129,17.4309 60.6996,19.3242 63.0461,24.6754 L 82.9262,68.8828 L 82.9262,18.1719 L 95.7684,18.1719 L 95.7684,68.8 C 95.7684,73.7398 93.7926,76.1273 89.7176,77.3617 C 79.9625,80.4078 73.418,77.7734 70.4547,71.1875 L 50.9445,27.5566 L 32.052,71.1875 C 29.2121,77.7734 22.5438,80.4078 12.7891,77.3617 C 8.71406,76.1273 6.73828,73.7398 6.73828,68.8 L 6.73828,18.1719"
       id="path2416"
       style="fill:#005c88;fill-opacity:1;fill-rule:nonzero;stroke:none" /><path
       d="M 106.447,59.4488 L 119.284,59.4488 L 119.284,31.5102 C 119.164,29.9926 119.772,26.4301 126.805,26.3195 C 130.395,26.2633 154.506,26.3195 154.732,26.3195 L 154.732,59.584 L 167.598,59.584 C 167.659,59.584 167.586,14.2203 167.587,14.0273 C 167.659,2.83906 153.705,0.409375 147.275,0.221094 L 106.725,0.221094 L 106.725,8.86094 C 106.796,8.86094 147.244,8.85156 147.346,8.86211 C 155.611,9.73516 154.635,13.843 154.634,15.2258 L 154.634,18.5938 L 127.339,18.5938 C 114.64,18.7113 106.553,24.2535 106.453,30.6289 C 106.444,31.2199 106.727,59.1691 106.447,59.4488"
       id="path2418"
       style="fill:#005c88;fill-opacity:1;fill-rule:nonzero;stroke:none" /><path
       d="M 177.496,18.1719 L 214.417,18.1719 C 218.738,18.1719 222.937,19.0773 226.271,20.6414 C 231.827,23.1934 234.544,26.6512 234.544,31.1789 L 234.544,40.5637 C 234.544,44.2684 231.457,47.7258 225.406,50.0309 C 222.196,51.2656 218.245,51.9242 214.417,51.9242 L 198.858,51.9242 C 193.672,51.9242 191.202,53.4883 190.585,56.9461 C 190.461,57.3574 190.461,57.6867 190.461,58.0984 L 190.461,63.943 C 190.461,64.2727 190.461,64.602 190.585,65.0133 C 191.202,67.6477 192.561,68.3887 197.129,68.8 C 197.5,68.8 197.994,68.8828 198.364,68.8828 L 235.038,68.8828 L 235.038,77.4441 L 198.982,77.4441 C 193.795,77.4441 191.079,77.1148 188.609,76.3742 C 180.953,73.9867 177.62,70.2 177.62,63.6141 L 177.62,56.1227 C 177.62,50.3602 184.164,45.4207 195.154,44.2684 C 196.388,44.1859 197.623,44.1035 198.858,44.1035 L 212.194,44.1035 C 212.688,44.1035 213.182,44.1035 213.552,44.0211 C 217.627,43.6918 219.356,42.9512 220.591,41.4691 C 221.332,40.7285 221.579,39.9875 221.579,39.1641 L 221.579,31.6727 C 221.579,30.7672 220.961,29.6145 219.726,28.627 C 218.615,27.6391 216.762,26.9805 214.293,26.8156 C 213.799,26.8156 213.429,26.7336 212.935,26.7336 L 177.496,26.7336 L 177.496,18.1719"
       id="path2420"
       style="fill:#e5830f;fill-opacity:1;fill-rule:nonzero;stroke:none" /><path
       d="M 314.656,33.0723 C 314.656,24.2637 321.201,19.3242 334.413,18.3363 C 335.648,18.2539 336.883,18.1719 338.118,18.1719 L 371.581,18.1719 L 371.581,26.7336 L 337.871,26.7336 C 330.338,26.7336 327.498,28.627 327.498,33.1543 L 327.498,77.4441 L 314.656,77.4441 L 314.656,33.0723"
       id="path2422"
       style="fill:#e5830f;fill-opacity:1;fill-rule:nonzero;stroke:none" /><path
       d="M 242.74,32.623 L 242.74,63.1453 C 242.74,70.8996 248.185,75.6016 258.95,77.0867 C 260.063,77.2516 261.301,77.334 262.414,77.334 L 286.791,77.334 C 288.028,77.334 289.141,77.2516 290.379,77.0867 C 301.144,75.6016 306.588,70.8996 306.588,63.1453 L 306.588,32.623 C 306.588,26.332 304.276,22.9648 298.948,20.7715 L 311.597,9.35273 L 296.686,9.35273 L 286.453,18.591 L 276.149,17.9391 L 262.414,17.9391 C 260.063,17.9391 257.589,18.2688 254.866,19.0113 C 246.7,21.2387 242.74,25.5285 242.74,32.623 z M 256.6,33.3652 C 256.6,32.9527 256.724,32.5402 256.848,32.0453 C 257.591,28.498 260.931,26.5184 266.004,26.5184 L 277.671,26.5184 L 266.954,36.1934 L 281.865,36.1934 L 291.212,27.7551 C 292.934,28.6734 294.068,30.0777 294.464,31.8801 C 294.588,32.2926 294.588,32.7051 294.588,33.1176 L 294.588,62.4027 C 294.588,62.7328 294.588,63.1453 294.464,63.5578 C 293.721,66.8574 290.38,68.7547 285.431,68.7547 L 266.004,68.7547 C 260.312,68.7547 256.6,66.2801 256.6,62.4027 L 256.6,33.3652"
       id="path2424"
       style="fill:#e5830f;fill-opacity:1;fill-rule:nonzero;stroke:none" /><path
       d="M 382.879,91.6457 C 374.986,91.8609 368.955,91.1266 363.8,88.952 C 362.335,88.334 359.999,88.3188 359.76,86.4828 C 360.566,85.6383 360.69,84.3781 361.331,83.3406 C 362.561,81.3477 364.639,78.6789 366.493,77.2797 C 368.52,75.7504 370.607,74.1145 372.779,72.7902 C 376.642,70.434 380.956,69.0895 384.675,66.7297 C 386.868,65.3387 389.045,63.5859 391.184,62.016 C 392.241,61.2406 392.952,60.0332 394.327,59.5469 C 394.327,59.6219 394.327,59.6965 394.327,59.7715 C 393.604,60.691 393.418,61.9547 392.755,62.9141 C 391.783,63.8863 390.81,64.8594 389.838,65.832 C 386.985,69.6191 383.362,72.9453 379.512,75.7086 C 376.442,77.9125 369.571,80.8895 368.289,84.4625 C 368.214,84.5375 368.139,84.6125 368.065,84.6871 C 370.241,84.9324 372.79,85.7199 374.799,86.2582 C 378.174,87.1637 381.19,86.9293 384.675,87.8297 C 386.246,88.2785 387.817,88.7273 389.389,89.1766 C 389.389,89.4758 389.389,89.775 389.389,90.0746 C 387.627,91.8824 386.371,94.275 384.45,95.9105 C 379.424,100.19 373.938,104.466 368.289,108.032 C 365.156,110.009 361.284,111.295 357.964,112.97 C 356.847,113.534 354.886,113.826 354.148,114.766 C 352.403,116.99 351.453,119.808 350.108,122.398 C 347.29,127.823 344.523,133.749 342.027,139.457 C 340.325,143.35 339.212,147.189 337.089,150.68 C 326.898,167.438 315.926,177.552 298.93,187.493 C 295.316,189.607 290.961,190.443 286.361,191.534 C 283.892,191.683 281.422,191.833 278.954,191.982 C 277.446,192.613 275.879,194.456 274.464,195.35 C 268.834,198.907 254.392,206.643 250.223,196.472 C 247.591,190.052 254.158,183.787 256.507,180.534 C 258.156,178.252 260.267,175.693 261.445,173.127 C 262.22,171.44 262.354,169.749 263.017,167.964 C 264.649,163.568 266.069,158.785 268.179,154.721 C 269.246,152.666 270.422,150.499 271.771,148.66 C 272.598,147.532 274.015,147.036 274.24,145.293 C 272.853,143.354 272.774,140.343 271.995,137.886 C 268.488,126.825 269.809,113.076 274.913,104.889 C 276.48,102.376 280.168,96.9863 285.238,99.0531 C 289.673,100.861 288.683,106.459 289.952,111.399 C 290.24,112.519 290.063,113.342 290.625,114.092 C 290.625,114.018 290.625,113.943 290.625,113.868 C 291.972,111.175 293.319,108.48 294.666,105.787 C 297.657,100.972 302.963,95.9395 307.46,92.5438 C 309.792,90.7824 311.628,87.7375 314.643,86.707 C 314.643,86.7824 314.643,86.857 314.643,86.9316 C 314.568,86.9316 314.493,86.9316 314.418,86.9316 C 313.834,87.8426 312.92,88.2203 312.174,88.952 C 310.417,90.6746 308.464,92.816 307.011,94.7883 C 302.921,100.341 299.306,106.419 296.012,112.745 C 294.44,115.766 293.074,119.099 291.748,122.173 C 291.237,123.359 291.242,125.151 290.177,125.764 C 288.725,123.512 286.586,121.69 285.463,119.03 C 283.667,114.779 283.435,109.593 282.769,104.216 C 282.376,104.074 282.551,104.172 282.32,103.991 C 279.195,104.746 278.095,107.964 276.933,110.725 C 273.995,117.708 273.449,128.951 276.036,136.988 C 276.705,139.067 279.727,145.617 278.505,147.538 C 277.921,149.455 275.993,150.563 274.913,152.027 C 273.579,153.838 272.245,156.222 271.322,158.312 C 268.917,163.757 267.793,169.869 265.261,175.372 C 264.051,178.002 262.004,180.664 260.323,183.004 C 258.462,185.595 256.379,187.502 254.936,190.636 C 254.423,191.75 253.725,193.532 254.487,194.676 C 254.729,195.448 255.071,195.771 255.834,196.023 C 257.136,197.027 260.762,195.689 262.119,195.125 C 265.718,193.63 268.721,192.206 271.771,190.187 C 273.236,189.216 274.715,187.339 276.484,186.82 C 277.158,186.82 277.831,186.82 278.505,186.82 C 281.664,186.093 285.205,186.594 288.156,185.697 C 293.375,184.112 298.05,181.645 302.298,178.963 C 315.236,170.794 325.812,159.166 333.049,145.293 C 334.214,143.06 334.716,140.928 335.742,138.559 C 337.811,133.782 340.417,128.866 342.476,124.193 C 344.53,119.533 346.532,114.829 349.434,110.95 C 350.961,108.91 356.856,107.817 359.535,106.685 C 361.414,105.891 364.49,105.064 366.269,103.991 C 369.667,101.943 372.959,99.502 376.145,97.2574 C 377.738,96.1352 382.636,93.6746 382.879,91.6457"
       id="path2426"
       style="fill:#005c88;fill-opacity:1;fill-rule:nonzero;stroke:none" /><path
       d="M 282.545,177.168 C 280.9,177.197 279.736,176.988 278.505,176.719 C 278.505,176.644 278.505,176.569 278.505,176.494 C 278.579,176.494 278.654,176.494 278.729,176.494 C 279.514,174.881 280.901,173.843 281.871,172.454 C 282.62,170.882 283.368,169.311 284.116,167.74 C 284.191,167.815 284.266,167.889 284.341,167.964 C 285.73,168.944 286.368,170.511 286.361,172.903 C 285.803,173.489 285.721,174.224 285.238,174.923 C 284.595,175.854 283.355,176.384 282.545,177.168"
       id="path2428"
       style="fill:#005c88;fill-opacity:1;fill-rule:evenodd;stroke:none" /><path
       d="M 377.609,26.9766 C 377.609,21.3234 382.077,17.5125 387.073,17.5125 C 392.071,17.5125 396.537,21.3234 396.537,26.9766 C 396.537,32.6297 392.071,36.4406 387.073,36.4406 C 382.077,36.4406 377.609,32.6297 377.609,26.9766 z M 394.417,26.9766 C 394.417,22.6859 391.137,19.4812 387.073,19.4812 C 382.96,19.4812 379.729,22.6859 379.729,26.9766 C 379.729,31.2672 382.96,34.4719 387.073,34.4719 C 391.137,34.4719 394.417,31.2672 394.417,26.9766 z M 389.623,21.5766 L 391.742,21.5766 L 388.638,26.3203 C 390.304,26.4969 391.566,27.3047 391.566,29.2734 C 391.566,31.4688 390.178,32.3766 387.502,32.3766 L 383.288,32.3766 L 383.288,21.5766 L 385.105,21.5766 L 385.105,26.2453 L 386.796,26.2453 L 389.623,21.5766 z M 385.105,27.7594 L 385.105,30.8625 L 387.2,30.8625 C 388.285,30.8625 389.597,30.6609 389.597,29.4 C 389.597,27.8859 388.411,27.7594 387.048,27.7594 L 385.105,27.7594"
       id="path2430"
       style="fill:#e5830f;fill-opacity:1;fill-rule:evenodd;stroke:none" /><g
       id="g2432"><text
         x="5.1502395"
         y="-96.775887"
         transform="scale(1.0489449,-0.9533389)"
         id="text2449"
         xml:space="preserve"
         style="font-size:26.41030884px;font-style:normal;font-weight:normal;fill:#808080;fill-opacity:1;stroke:none;stroke-width:1px;stroke-linecap:butt;stroke-linejoin:miter;stroke-opacity:1;font-family:Bitstream Vera Sans"><tspan
           x="5.1502395"
           y="-96.775887"
           id="tspan2451">Powered by</tspan></text>
</g></g></svg>