<?xml version="1.0" encoding="UTF-8" standalone="no"?>
<!-- Created with Inkscape (http://www.inkscape.org/) -->
<svg
   xmlns:dc="http://purl.org/dc/elements/1.1/"
   xmlns:cc="http://creativecommons.org/ns#"
   xmlns:rdf="http://www.w3.org/1999/02/22-rdf-syntax-ns#"
   xmlns:svg="http://www.w3.org/2000/svg"
   xmlns="http://www.w3.org/2000/svg"
   xmlns:sodipodi="http://sodipodi.sourceforge.net/DTD/sodipodi-0.dtd"
   xmlns:inkscape="http://www.inkscape.org/namespaces/inkscape"
   id="svg2"
   sodipodi:version="0.32"
   inkscape:version="0.46"
   width="451.25"
   height="117.5"
   xml:space="preserve"
   sodipodi:docname="ubuntu.svg"
   inkscape:output_extension="org.inkscape.output.svg.inkscape"><metadata
     id="metadata7"><rdf:RDF><cc:Work
         rdf:about=""><dc:format>image/svg+xml</dc:format><dc:type
           rdf:resource="http://purl.org/dc/dcmitype/StillImage" /></cc:Work></rdf:RDF></metadata><defs
     id="defs5"><inkscape:perspective
       sodipodi:type="inkscape:persp3d"
       inkscape:vp_x="0 : 526.18109 : 1"
       inkscape:vp_y="0 : 1000 : 0"
       inkscape:vp_z="744.09448 : 526.18109 : 1"
       inkscape:persp3d-origin="372.04724 : 350.78739 : 1"
       id="perspective9" /><clipPath
       clipPathUnits="userSpaceOnUse"
       id="clipPath19"><path
         d="M 0,937.934 L 0,0 L 3602.68,0 L 3602.68,937.934"
         id="path21" /></clipPath></defs><sodipodi:namedview
     inkscape:window-height="948"
     inkscape:window-width="1279"
     inkscape:pageshadow="2"
     inkscape:pageopacity="0.0"
     guidetolerance="10.0"
     gridtolerance="10.0"
     objecttolerance="10.0"
     borderopacity="1.0"
     bordercolor="#666666"
     pagecolor="#ffffff"
     id="base"
     showgrid="false"
     inkscape:zoom="1.2254848"
     inkscape:cx="225.625"
     inkscape:cy="58.75"
     inkscape:window-x="0"
     inkscape:window-y="25"
     inkscape:current-layer="g11" /><g
     id="g11"
     inkscape:groupmode="layer"
     inkscape:label="UbuntuLogo"
     transform="matrix(1.25,0,0,-1.25,0,117.5)"><g
       id="g13"
       transform="scale(0.1,0.1)"><g
         id="g15"><g
           id="g17"
           clip-path="url(#clipPath19)"><path
             d="M 0,468.895 C 0,519.293 40.8516,560.141 91.2422,560.141 C 141.637,560.141 182.484,519.293 182.484,468.895 C 182.484,418.508 141.637,377.656 91.2422,377.656 C 40.8516,377.656 0,418.508 0,468.895"
             style="fill:#f46f1a;fill-opacity:1;fill-rule:nonzero;stroke:none"
             id="path23" /><path
             d="M 791.098,12.2578 C 747.457,-12.9492 691.656,2.00391 666.465,45.6445 C 641.266,89.2969 656.215,145.098 699.859,170.281 C 743.504,195.488 799.301,180.535 824.504,136.887 C 849.691,93.2617 834.742,37.4414 791.098,12.2578"
             style="fill:#fab41d;fill-opacity:1;fill-rule:nonzero;stroke:none"
             id="path25" /><path
             d="M 527.387,694.664 C 640.996,694.664 735.258,610.305 750.863,500.938 L 907.184,500.938 C 900.078,586.875 864.453,666.973 804.883,730.145 C 766.73,710.715 719.82,710.344 679.977,733.352 C 640.094,756.379 616.953,797.223 614.738,840.02 C 586.43,846.621 557.18,850.043 527.387,850.043 C 470.348,850.043 415.227,837.594 365.102,813.984 L 443.363,678.438 C 469.352,688.887 497.711,694.664 527.387,694.664"
             style="fill:#f46f1a;fill-opacity:1;fill-rule:nonzero;stroke:none"
             id="path27" /><path
             d="M 750.879,436.957 C 735.312,327.543 641.031,243.137 527.387,243.137 C 497.691,243.137 469.32,248.918 443.324,259.395 L 365.062,123.84 C 415.188,100.215 470.328,87.7539 527.387,87.7539 C 557.203,87.7539 586.488,91.1914 614.809,97.793 C 616.992,140.645 640.137,181.555 680.055,204.59 C 719.918,227.605 766.84,227.234 805,207.773 C 864.523,270.957 900.109,351.039 907.191,436.957 L 750.879,436.957"
             style="fill:#e51535;fill-opacity:1;fill-rule:nonzero;stroke:none"
             id="path29" /><path
             d="M 301.633,468.895 C 301.633,540.824 335.441,605 387.992,646.367 L 309.75,781.898 C 291.402,769.082 274.039,754.57 257.871,738.406 C 212.594,693.125 180.121,638.457 162.25,578.785 C 198.254,555.469 222.094,514.984 222.094,468.895 C 222.094,422.812 198.254,382.324 162.25,359.02 C 180.121,299.348 212.594,244.68 257.871,199.395 C 274.027,183.23 291.371,168.738 309.707,155.918 L 387.961,291.461 C 335.426,332.828 301.633,396.992 301.633,468.895"
             style="fill:#fab41d;fill-opacity:1;fill-rule:nonzero;stroke:none"
             id="path31" /><path
             d="M 791.016,925.695 C 834.66,900.492 849.613,844.688 824.414,801.051 C 799.223,757.41 743.418,742.457 699.777,767.656 C 656.133,792.848 641.188,848.652 666.379,892.297 C 691.574,935.938 747.379,950.883 791.016,925.695"
             style="fill:#e51535;fill-opacity:1;fill-rule:nonzero;stroke:none"
             id="path33" /><path
             d="M 3255.18,629.812 C 3255.18,649.863 3259.71,664.773 3268.79,674.566 C 3277.83,684.586 3289.84,689.59 3304.79,689.605 C 3319.98,689.605 3332.23,684.586 3341.54,674.566 C 3350.86,664.531 3355.51,649.625 3355.53,629.812 L 3355.53,499.547 C 3355.53,462.555 3358.05,436.785 3363.14,422.281 C 3368.24,408.027 3376.35,396.891 3387.52,388.91 C 3398.89,380.93 3412.83,376.957 3429.3,376.957 C 3445.78,376.957 3459.71,380.816 3471.09,388.562 C 3482.72,396.543 3491.31,408.145 3496.89,423.367 C 3501.02,434.742 3503.07,459.027 3503.09,496.285 L 3503.09,630.281 C 3503.09,650.172 3507.6,664.973 3516.58,674.68 C 3525.59,684.617 3537.5,689.59 3552.34,689.605 C 3567.4,689.605 3579.55,684.617 3588.81,674.68 C 3598.03,664.73 3602.64,649.934 3602.68,630.281 L 3602.68,522.398 C 3602.68,453.492 3597.21,406.324 3586.31,380.93 C 3572.97,349.98 3553.34,326.172 3527.42,309.48 C 3501.5,293.059 3468.55,284.836 3428.57,284.824 C 3385.2,284.824 3350.06,294.504 3323.16,313.84 C 3296.52,333.176 3277.73,360.145 3266.84,394.719 C 3259.08,418.668 3255.22,462.184 3255.22,525.297 L 3255.18,629.812"
             style="fill:#111216;fill-opacity:1;fill-rule:nonzero;stroke:none"
             id="path35" /><path
             d="M 2484.65,344.617 C 2484.65,324.57 2489.18,309.656 2498.26,299.852 C 2507.32,289.836 2519.32,284.836 2534.28,284.824 C 2549.47,284.824 2561.72,289.836 2571.04,299.852 C 2580.33,309.883 2584.98,324.797 2584.98,344.617 L 2585,474.887 C 2585,511.875 2587.54,537.633 2592.62,552.141 C 2597.72,566.406 2605.82,577.523 2616.99,585.504 C 2628.36,593.484 2642.3,597.477 2658.77,597.477 C 2675.23,597.477 2689.18,593.609 2700.57,585.867 C 2712.21,577.891 2720.8,566.277 2726.39,551.051 C 2730.49,539.691 2732.54,515.395 2732.56,478.145 L 2732.56,344.148 C 2732.56,324.25 2737.07,309.465 2746.07,299.734 C 2755.06,289.797 2766.97,284.836 2781.8,284.824 C 2796.88,284.824 2809.04,289.797 2818.28,299.734 C 2827.5,309.695 2832.11,324.48 2832.13,344.148 L 2832.13,452.031 C 2832.13,520.945 2826.68,568.098 2815.78,593.484 C 2802.46,624.438 2782.83,648.258 2756.91,664.941 C 2730.98,681.371 2698.03,689.59 2658.05,689.605 C 2614.67,689.605 2579.55,679.922 2552.64,660.582 C 2526,641.25 2507.21,614.285 2496.31,579.707 C 2488.55,555.766 2484.69,512.234 2484.69,449.125 L 2484.65,344.617"
             style="fill:#111216;fill-opacity:1;fill-rule:nonzero;stroke:none"
             id="path37" /><path
             d="M 2030.41,629.812 C 2030.41,649.863 2034.94,664.773 2044,674.566 C 2053.07,684.586 2065.06,689.59 2080.04,689.605 C 2095.22,689.605 2107.46,684.586 2116.78,674.566 C 2126.09,664.531 2130.74,649.625 2130.74,629.812 L 2130.74,499.547 C 2130.74,462.555 2133.3,436.785 2138.4,422.281 C 2143.48,408.027 2151.58,396.891 2162.73,388.91 C 2174.12,380.93 2188.05,376.957 2204.53,376.957 C 2221,376.957 2234.94,380.816 2246.33,388.562 C 2257.95,396.543 2266.56,408.145 2272.13,423.367 C 2276.23,434.742 2278.3,459.027 2278.32,496.285 L 2278.32,630.281 C 2278.32,650.172 2282.83,664.973 2291.82,674.68 C 2300.8,684.617 2312.73,689.59 2327.58,689.605 C 2342.62,689.605 2354.79,684.617 2364.04,674.68 C 2373.26,664.73 2377.89,649.934 2377.89,630.281 L 2377.89,522.398 C 2377.89,453.492 2372.44,406.324 2361.52,380.93 C 2348.2,349.98 2328.57,326.172 2302.66,309.48 C 2276.72,293.059 2243.77,284.836 2203.79,284.824 C 2160.43,284.824 2125.31,294.504 2098.4,313.84 C 2071.76,333.176 2052.99,360.145 2042.07,394.719 C 2034.32,418.668 2030.45,462.184 2030.45,525.297 L 2030.41,629.812"
             style="fill:#111216;fill-opacity:1;fill-rule:nonzero;stroke:none"
             id="path39" /><path
             d="M 1131.52,629.812 C 1131.52,649.863 1136.05,664.773 1145.13,674.566 C 1154.19,684.586 1166.19,689.59 1181.15,689.605 C 1196.33,689.605 1208.59,684.586 1217.91,674.566 C 1227.13,664.617 1231.79,649.84 1231.87,630.281 L 1231.87,499.547 C 1231.87,462.555 1234.41,436.785 1239.5,422.281 C 1244.59,408.027 1252.7,396.891 1263.85,388.91 C 1275.23,380.93 1289.17,376.957 1305.65,376.957 C 1322.11,376.957 1336.05,380.816 1347.45,388.562 C 1359.07,396.543 1367.67,408.145 1373.24,423.367 C 1377.36,434.742 1379.41,459.027 1379.43,496.285 L 1379.43,630.281 C 1379.43,650.172 1383.94,664.973 1392.94,674.68 C 1401.93,684.617 1413.85,689.59 1428.68,689.605 C 1443.75,689.605 1455.91,684.617 1465.15,674.68 C 1474.38,664.73 1479,649.934 1479.01,630.281 L 1479.01,522.398 C 1479.01,453.492 1473.56,406.324 1462.66,380.93 C 1449.33,349.98 1429.7,326.172 1403.78,309.48 C 1377.84,293.059 1344.9,284.836 1304.92,284.824 C 1261.55,284.824 1226.42,294.504 1199.52,313.84 C 1172.86,333.176 1154.09,360.145 1143.19,394.719 C 1135.43,418.668 1131.56,462.184 1131.56,525.297 L 1131.52,629.812"
             style="fill:#111216;fill-opacity:1;fill-rule:nonzero;stroke:none"
             id="path41" /><path
             d="M 1803.21,378.824 C 1812.76,385.367 1820.45,394.141 1826.29,405.141 C 1827.15,406.113 1827.85,407.156 1828.4,408.301 C 1838.84,430.094 1845.03,457.285 1845.03,486.742 C 1845.03,515.199 1839.27,541.516 1829.48,562.914 C 1823.36,577.066 1814.61,588.051 1803.21,595.863 C 1790.68,604.379 1775.37,608.637 1757.24,608.637 C 1739.12,608.637 1723.78,604.242 1711.26,595.469 C 1699,586.688 1690.07,574.453 1684.48,558.762 C 1680.22,546.605 1677.58,527.266 1676.56,500.754 C 1676.14,459.688 1678.94,431.738 1684.48,415.934 C 1690.07,400.219 1699,388 1711.26,379.227 C 1723.78,370.43 1739.12,366.059 1757.24,366.059 C 1775.37,366.059 1790.68,370.293 1803.21,378.824 z M 1584.05,486.023 L 1584.23,491.941 C 1584.12,492.496 1584.05,493.152 1584.05,493.945 L 1584.05,761.246 C 1584.05,777.629 1584.42,790.406 1585.17,799.602 C 1586.16,809.02 1588.64,817.086 1592.63,823.793 C 1596.61,830.738 1602.32,836.324 1609.8,840.551 C 1617.25,845.02 1625.58,847.25 1634.79,847.25 C 1647.72,847.25 1659.4,842.414 1669.85,832.73 C 1676.81,826.27 1681.16,818.324 1682.91,808.906 C 1684.89,799.711 1685.89,786.562 1685.89,769.438 L 1685.89,666.863 C 1706.4,674.25 1728.07,689.742 1770.3,689.742 C 1810.27,689.723 1829.76,681.508 1855.69,665.074 C 1869.41,656.238 1881.36,645.41 1891.58,632.566 C 1898.71,623.574 1905,613.602 1910.41,602.645 C 1911.86,599.711 1913.24,596.703 1914.57,593.625 C 1915.35,591.797 1916.11,589.859 1916.86,587.805 C 1927.81,559.441 1934.26,524.82 1934.26,487.422 C 1934.26,450.719 1928.03,416.664 1917.42,388.602 C 1916.52,385.906 1915.57,383.406 1914.57,381.062 C 1911.72,374.465 1908.57,368.164 1905.14,362.203 C 1902.34,357.305 1899.34,352.633 1896.13,348.18 C 1885,332.668 1871.52,319.824 1855.69,309.617 C 1829.76,293.191 1796.81,284.973 1756.83,284.961 C 1713.46,284.961 1678.34,294.641 1651.44,313.977 C 1624.78,333.312 1606.01,360.281 1595.1,394.852 C 1589.09,413.453 1585.4,443.844 1584.05,486.023 z M 1914.57,593.625 C 1913.24,596.703 1911.86,599.711 1910.41,602.645 C 1912.7,597.922 1914.84,592.961 1916.86,587.805 C 1916.11,589.859 1915.35,591.797 1914.57,593.625"
             style="fill:#111216;fill-opacity:1;fill-rule:nonzero;stroke:none"
             id="path43" /><path
             d="M 2952.29,696.594 L 2963.5,696.594 L 2963.5,758.773 C 2963.5,775.461 2963.85,788.473 2964.59,797.832 C 2965.59,807.434 2968.09,815.641 2972.05,822.48 C 2976.04,829.555 2981.74,835.238 2989.22,839.535 C 2996.68,844.094 3004.98,846.363 3014.2,846.363 C 3027.13,846.363 3038.81,841.438 3049.26,831.57 C 3056.23,825 3060.57,816.914 3062.32,807.305 C 3064.3,797.945 3065.29,784.559 3065.29,767.125 L 3065.29,696.594 L 3102.6,696.594 C 3116.99,696.594 3127.95,693.047 3135.41,685.977 C 3143.12,679.156 3146.97,670.305 3146.97,659.434 C 3146.97,645.523 3141.5,635.801 3130.57,630.242 C 3119.86,624.672 3104.45,621.898 3084.34,621.898 L 3065.29,621.898 L 3065.29,431.562 C 3065.29,415.383 3065.78,402.852 3066.8,394.008 C 3068.03,385.43 3071.02,378.344 3075.76,372.781 C 3080.7,367.477 3088.67,364.828 3099.61,364.828 C 3105.59,364.828 3113.67,365.836 3123.87,367.871 C 3134.04,370.137 3142.01,371.285 3147.73,371.285 C 3155.94,371.285 3163.26,367.871 3169.73,361.039 C 3176.45,354.449 3179.8,346.238 3179.8,336.395 C 3179.8,319.707 3170.86,306.941 3152.95,298.098 C 3135.04,289.266 3109.3,284.836 3075.76,284.824 C 3043.91,284.824 3019.79,290.266 3003.38,301.125 C 2986.97,311.98 2976.17,327.02 2970.94,346.238 C 2965.96,365.465 2963.5,391.109 2963.5,423.215 L 2963.5,621.898 L 2950.06,621.898 C 2935.39,621.898 2924.18,625.43 2916.48,632.52 C 2908.75,639.594 2904.94,648.555 2904.94,659.434 C 2904.94,670.305 2908.89,679.141 2916.88,685.977 C 2925.06,693.047 2936.86,696.582 2952.29,696.594"
             style="fill:#111216;fill-opacity:1;fill-rule:nonzero;stroke:none"
             id="path45" /></g></g></g></g></svg>